<?xml version="1.0" encoding="utf-8"?>
<?xml-stylesheet type="text/xsl" href="rss1.xsl"?>
<rss version="2.0" xmlns:atom="http://www.w3.org/2005/Atom" xmlns:content="http://purl.org/rss/1.0/modules/content/" xmlns:dc="http://purl.org/dc/elements/1.1/" xmlns:media="http://search.yahoo.com/mrss/">
<channel>
 <title>Getty</title>
 <link>http://www.gettyimg.com/</link>
 <atom:link href="http://www.gettyimg.com/" rel="self" type="application/rss+xml" />

 
                <item>
                <title><![CDATA[【Cinema Center】MOVIE - The Fast And The Furious | Velozes E Furiosos (2001) 1080p GLBO WEB-DL AAC2.0 DUAL (ENG + BR-PT) H.264-DASH - 3.62GB MEGA]]></title>
                <link><![CDATA[https://sharemania.us/threads/the-fast-and-the-furious-velozes-e-furiosos-2001-1080p-glbo-web-dl-aac2-0-dual-eng-br-pt-h-264-dash-3-62gb-mega.242034/]]></link>
                <description><![CDATA[<article>
<blockquote class="messageText SelectQuoteContainer ugc baseHtml">
<span style="font-size: 22px"><b>Velozes.E.Furiosos.2001.1080p.GLBO.WEB-DL.AAC2.0.H.264-DASH.mkv (English | Inglês <b>| Brazilian Portuguese | </b>Português Brasileiro) <b>| DUAL | GLOBO | AAC2.0 | MEGA (3.62 GB) | </b>DASH</b></span><br>
<span style="font-size: 18px"><br>
Original English Title: <b>The Fast And The Furious</b><br>
<br>
Brazilian Portuguese Title: </span><b><span style="font-size: 18px">Velozes E Furiosos</span></b><br>
<span style="font-size: 18px"><br>
Release Year:<b> 2001</b><br>
<br>
Languages: <b>DUAL: Portuguese (Brazil) | English</b><br>
<br>
Streaming Service:</span><b><b> <span style="font-size: 18px">GLOBOPLAY (Brazil)</span></b></b><br>
<br>
<div class="ToggleTriggerAnchor bbCodeSpoilerContainer">
<button type="button" class="button bbCodeSpoilerButton ToggleTrigger Tooltip JsOnly" data-target="> .SpoilerTarget"><span>Spoiler: <span class="SpoilerTitle">MediaInfo</span></span></button>
<div class="SpoilerTarget bbCodeSpoilerText">General<br>
Unique ID : 52883858410743731521733803574391559178 (0x27C90F86ADFE959FDAB6E32B3EE9540A)<br>
Complete name : Velozes.E.Furiosos.2001.1080p.GLBO.WEB-DL.AAC2.0.H.264-DASH\Velozes.E.Furiosos.2001.1080p.GLBO.WEB-DL.AAC2.0.H.264-DASH.mkv<br>
Format : Matroska<br>
Format version : Version 4<br>
File size : 3.63 GiB<br>
Duration : 1 h 45 min<br>
Overall bit rate : 4 909 kb/s<br>
Frame rate : 29.970 FPS<br>
Encoded date : 2024-04-11 21:53:30 UTC<br>
Writing application : mkvmerge v82.0 ('I'm The President') 64-bit<br>
Writing library : libebml v1.4.5 + libmatroska v1.7.1<br>
<br>
Video<br>
ID : 1<br>
Format : AVC<br>
Format/Info : Advanced Video Codec<br>
Format profile : Main@L4<br>
Format settings : CABAC / 4 Ref Frames<br>
Format settings, CABAC : Yes<br>
Format settings, Reference frames : 4 frames<br>
Format settings, GOP : M=4, N=30<br>
Codec ID : V_MPEG4/ISO/AVC<br>
Duration : 1 h 45 min<br>
Bit rate : 4 649 kb/s<br>
Width : 1 920 pixels<br>
Height : 1 080 pixels<br>
Display aspect ratio : 16:9<br>
Frame rate mode : Constant<br>
Frame rate : 29.970 (30000/1001) FPS<br>
Color space : YUV<br>
Chroma subsampling : 4:2:0<br>
Bit depth : 8 bits<br>
Scan type : Progressive<br>
Bits/(Pixel*Frame) : 0.075<br>
Stream size : 3.43 GiB (95%)<br>
Title : Portuguese<br>
Language : Portuguese<br>
Default : Yes<br>
Forced : No<br>
<br>
Audio #1<br>
ID : 2<br>
Format : AAC LC<br>
Format/Info : Advanced Audio Codec Low Complexity<br>
Codec ID : A_AAC-2<br>
Duration : 1 h 45 min<br>
Bit rate : 128 kb/s<br>
Channel(s) : 2 channels<br>
Channel layout : L R<br>
Sampling rate : 44.1 kHz<br>
Frame rate : 43.066 FPS (1024 SPF)<br>
Compression mode : Lossy<br>
Stream size : 96.8 MiB (3%)<br>
Title : English<br>
Language : English<br>
Default : Yes<br>
Forced : No<br>
<br>
Audio #2<br>
ID : 3<br>
Format : AAC LC<br>
Format/Info : Advanced Audio Codec Low Complexity<br>
Codec ID : A_AAC-2<br>
Duration : 1 h 45 min<br>
Bit rate : 128 kb/s<br>
Channel(s) : 2 channels<br>
Channel layout : L R<br>
Sampling rate : 44.1 kHz<br>
Frame rate : 43.066 FPS (1024 SPF)<br>
Compression mode : Lossy<br>
Stream size : 96.8 MiB (3%)<br>
Title : Portuguese<br>
Language : Portuguese<br>
Default : No<br>
Forced : No<br>
<br>
Text #1<br>
ID : 4<br>
Format : UTF-8<br>
Codec ID : S_TEXT/UTF8<br>
Codec ID/Info : UTF-8 Plain Text<br>
Duration : 1 h 45 min<br>
Bit rate : 39 b/s<br>
Frame rate : 0.163 FPS<br>
Count of elements : 1026<br>
Stream size : 30.4 KiB (0%)<br>
Title : Portuguese<br>
Language : Portuguese<br>
Default : No<br>
Forced : No<br>
<br>
Text #2<br>
ID : 5<br>
Format : UTF-8<br>
Codec ID : S_TEXT/UTF8<br>
Codec ID/Info : UTF-8 Plain Text<br>
Duration : 1 h 45 min<br>
Bit rate : 39 b/s<br>
Frame rate : 0.163 FPS<br>
Count of elements : 1027<br>
Stream size : 30.4 KiB (0%)<br>
Title : Portuguese<br>
Language : Portuguese<br>
Default : No<br>
Forced : No</div>
</div><br>
<img src="https://i.ibb.co/0Fbg8L2/1464195-background.jpg" class="bbCodeImage LbImage" alt="[​IMG]" data-url="https://i.ibb.co/0Fbg8L2/1464195-background.jpg" style=""><br>
<br>
<b><span style="font-size: 22px">Toretto é o líder de uma gangue de corrida de LA. O agente O'Conner se infiltra em seu bando para conseguir provas contra ele, mas descobre sua paixão por velocidade.</span></b><br>
<br>
<b><span style="font-size: 22px">Images:</span></b><br>
<img src="https://i.ibb.co/99KpRqJ/Velozes-E-Furiosos-2001-1080p-GLBO-WEB-DL-AAC2-0-H-264-DASH-mkv.png" class="bbCodeImage LbImage" alt="[​IMG]" data-url="https://i.ibb.co/99KpRqJ/Velozes-E-Furiosos-2001-1080p-GLBO-WEB-DL-AAC2-0-H-264-DASH-mkv.png" style=""> <br>
<b><span style="font-size: 22px"><br>
<b><span style="font-size: 26px">Download on MEGA:</span></b></span><br>
<span style="font-size: 18px">
<div class="bbCodeBlock bbCodeVfcHH HiddenContent">
<div class="attribution type">Hidden Content:</div>
<blockquote>You must reply before you can see the hidden data contained here.</blockquote>
</div></span></b>
<div class="messageTextEndMarker">&nbsp;</div>
</blockquote>
</article>]]></description>
                <author><![CDATA[dash]]></author>
                </item>

                </channel></rss>